<?xml version="1.0" standalone="no"?>
<!DOCTYPE svg PUBLIC "-//W3C//DTD SVG 20010904//EN"
 "http://www.w3.org/TR/2001/REC-SVG-20010904/DTD/svg10.dtd">
<svg version="1.0" xmlns="http://www.w3.org/2000/svg"
 width="512.000000pt" height="512.000000pt" viewBox="0 0 512.000000 512.000000"
 preserveAspectRatio="xMidYMid meet">
<metadata>
Created by potrace 1.14, written by Peter Selinger 2001-2017
</metadata>
<g transform="translate(0.000000,512.000000) scale(0.100000,-0.100000)"
fill="#000000" stroke="none">
<path d="M2370 4984 c-19 -2 -78 -9 -130 -14 -294 -32 -634 -139 -908 -286
-608 -326 -1052 -884 -1222 -1534 -95 -362 -98 -771 -10 -1139 217 -900 950
-1608 1882 -1815 219 -49 316 -59 573 -60 250 0 374 12 570 55 388 86 759 263
1060 506 134 108 333 313 430 445 460 614 594 1401 365 2129 -120 380 -322
703 -626 1000 -385 375 -864 609 -1424 694 -100 15 -483 28 -560 19z m904
-526 c3 -84 10 -535 16 -1003 5 -467 12 -911 15 -985 l6 -135 -220 220 -221
220 -2 434 c-2 278 -7 436 -13 438 -5 1 -118 -248 -250 -555 -131 -306 -249
-581 -262 -609 l-23 -53 275 0 275 0 0 80 0 80 218 -221 c119 -121 218 -224
220 -228 2 -7 -429 -351 -450 -359 -4 -2 -8 39 -8 92 l0 96 -364 0 -363 0
-234 -565 -234 -565 -268 0 c-147 0 -266 3 -264 7 2 5 388 853 857 1886 l854
1877 217 0 217 0 6 -152z m-740 -190 c-36 -79 -86 -189 -111 -245 -44 -99 -48
-103 -82 -109 -304 -49 -567 -177 -781 -380 -119 -114 -208 -235 -280 -379
-110 -222 -135 -334 -135 -595 0 -194 11 -272 56 -411 28 -88 89 -215 144
-303 25 -40 45 -77 45 -82 0 -5 -48 -116 -107 -246 l-108 -237 -43 42 c-55 54
-177 212 -232 302 -194 316 -287 699 -259 1067 44 590 378 1120 904 1437 288
174 633 273 972 279 l82 2 -65 -142z m1133 -195 c271 -181 513 -460 649 -748
317 -672 192 -1448 -321 -1997 -461 -492 -1150 -710 -1825 -577 -112 22 -346
94 -355 109 -6 9 159 417 174 433 4 4 32 -1 62 -13 223 -86 525 -111 782 -65
178 31 369 108 530 211 37 24 69 44 71 44 2 0 27 21 57 47 252 221 407 476
471 776 31 146 31 390 0 534 -50 230 -142 417 -300 605 -60 72 -167 173 -221
208 -22 15 -22 18 -28 299 l-6 285 89 -48 c49 -27 126 -73 171 -103z m-929
-1270 l-3 -238 -102 -3 c-79 -2 -103 0 -103 10 0 20 194 468 203 468 4 0 6
-107 5 -237z m581 -1125 l1 -76 -72 -6 c-40 -3 -144 -8 -230 -12 -149 -5 -158
-5 -158 13 1 11 80 80 223 192 l222 174 6 -104 c4 -57 7 -138 8 -181z"/>
</g>
</svg>
